<svg id="Layer_1" data-name="Layer 1" xmlns="http://www.w3.org/2000/svg" viewBox="0 0 176.07 58.84"><defs><style>.cls-1{fill:#6d625e;}.cls-2{fill:#ef4136;}</style></defs><title>fervor-logo</title><path class="cls-1" d="M180.77,88.82a12.37,12.37,0,0,1-12.13-12.55c0-7.06,5.47-12.81,12.13-12.81S193,69.2,193,76.27a12.38,12.38,0,0,1-12.2,12.55M222,59.2h-5.86c-7.24,0-13.11,4-17.89,12A18.11,18.11,0,1,0,180.77,94a19.28,19.28,0,0,0,4.56-.54,13.55,13.55,0,0,0,1.54-.45,17.68,17.68,0,0,0,9.83-8.11,70.21,70.21,0,0,0,4.66-8.25l0.21-.41c4.05-8,8.81-11.91,14.54-11.91H220Z" transform="translate(-45.9 -35.16)"/><polygon class="cls-1" points="112.37 24.01 102.42 51.08 92.39 24.01 90.46 24.01 90.43 24.01 88.2 29.51 99.19 58.02 105.57 58.02 118.68 24.01 112.37 24.01"/><path class="cls-1" d="M72.07,67.36H51.93V65.31c0-7.07,5.47-12.81,12.13-12.81H74.88L77,47.34H64.06a17.94,17.94,0,0,0-18.16,18V93.18h6V72.58H70.29a17.62,17.62,0,0,1,1.79-5.22" transform="translate(-45.9 -35.16)"/><path class="cls-1" d="M127.87,59.19a19,19,0,0,0-13.18,6.3A38.7,38.7,0,0,0,110,72.66c-0.57,1.05-1.1,2.12-1.62,3.16a35.84,35.84,0,0,1-5.14,8.32,14.08,14.08,0,0,1-10,4.73s-0.73,0-1.14,0-1.07,0-1.07,0a12.38,12.38,0,0,1-12.1-11.21h25.74c0.94-1.83,2.81-5.44,3.56-6.87A18.11,18.11,0,0,0,72.86,76.2C72.86,86,80.7,93.68,90.81,94h0s0.72,0,1.23,0,1.16,0,1.16,0a19.48,19.48,0,0,0,14.13-6.52A40.32,40.32,0,0,0,113.24,78c0.51-1,1-2,1.55-3a33.94,33.94,0,0,1,4.06-6.21,13.34,13.34,0,0,1,9.84-4.49h3.2l2.07-5.1ZM91,63.39a12.24,12.24,0,0,1,11.64,9.25H79.24A12.41,12.41,0,0,1,91,63.39" transform="translate(-45.9 -35.16)"/><path class="cls-2" d="M149.94,41.21a4.75,4.75,0,0,1,2.13,4.12c0,2.55-1.46,4.23-3.56,4.23a3.56,3.56,0,0,1-3.63-4.09c0.34-4.46,6.26-4.87,3.09-10.32,0.86,6.2-7.51,6.56-7.54,14a7.83,7.83,0,1,0,15.66,0,8,8,0,0,0-6.16-7.91" transform="translate(-45.9 -35.16)"/></svg>